# xmcd
#
# Track frame offsets:
#	150
#	11765
#	26532
#	42710
#	64977
#	86870
#	102767
#	119345
#	130482
#	145045
#	164792
#	177637
#	196310
#	205592
#	217842
#	230970
#
# Disc length: 3267 seconds
#
# Revision: 1
# Processed by: cddbd v1.5.1PL0 Copyright (c) Steve Scherf et al.
# Submitted via: CDex 1.50Beta5
#
DISCID=f50cc110
DTITLE=さまざまなアーティスト - STYLE Of Limited #03
DYEAR=1900
DGENRE=
TTITLE0=locofrank/COCONUTS FINE
TTITLE1=NEVER GOOD ENOUGH/Silly Story
TTITLE2=SQUEEZE!!/流れ星
TTITLE3=FROM YOUTH/COVERS
TTITLE4=BRAND JACK/旅人
TTITLE5=FULLTRAP/HEARTBEATING
TTITLE6=HATE HONEY/Can't Take My Eyes Off Of You
TTITLE7=SKA SKA CLUB/kids return
TTITLE8=UP HOLD/raise or moment
TTITLE9=コーガニズムオーケストラ/world
TTITLE10=フーバーオーバー/構造的欠陥
TTITLE11=NAPSAX/向日葵の詩
TTITLE12=Metallic Brothers/ウクララ
TTITLE13=LONG SHOT PARTY/SENSELESS SUMMER, I WANT IT
TTITLE14=bus tribute/Morning Rain
TTITLE15=BOMB FACTORY/WORST CASE
EXTD=
EXTT0=
EXTT1=
EXTT2=
EXTT3=
EXTT4=
EXTT5=
EXTT6=
EXTT7=
EXTT8=
EXTT9=
EXTT10=
EXTT11=
EXTT12=
EXTT13=
EXTT14=
EXTT15=
PLAYORDER=
